# xmcd
#
# Track frame offsets:
#	150
#	14350
#	30547
#	42063
#	55861
#	72393
#	88711
#	110481
#	126209
#	137584
#
# Disc length: 1990 seconds
#
# Revision: 0
# Processed by: cddbd v1.5.2PL0 Copyright (c) Steve Scherf et al.
# Submitted via: audiograbber 1.83.01
#
DISCID=8207c40a
DTITLE=Various Artist - Country Fever
DYEAR=1977
DGENRE=Country
TTITLE0=Merle Haggard - Ramblin´ Fever
TTITLE1=Joe Ely - She Never Spoke Spanish To Me
TTITLE2=Tanya Tucker - It´s A Cowboy Lovin´  Night
TTITLE3=Mal Tilis - Love Revivel
TTITLE4=Jerry Jeff Walker - Railroad Lady
TTITLE5=Joe Ely - I Had My Hopes Up High
TTITLE6=Jerry Jeff Walker - L. A. Freeway
TTITLE7=Tanya Tucker - Pride Of Franklin Country
TTITLE8=Merle Haggard - From Graceland To The Promised Land
TTITLE9=Mel Tillis - Working Woman
EXTD=
EXTT0=
EXTT1=
EXTT2=
EXTT3=
EXTT4=
EXTT5=
EXTT6=
EXTT7=
EXTT8=
EXTT9=
PLAYORDER=
